<svg width="31" height="19" viewBox="0 0 31 19" fill="none" xmlns="http://www.w3.org/2000/svg">
<path d="M14.8494 3.99344L14.8516 14.1867C14.8516 14.2669 14.8538 14.347 14.8583 14.4266C14.8583 14.4639 14.8863 14.495 14.9232 14.499C14.9581 14.5046 14.9933 14.5074 15.0286 14.5074H17.1057L17.1234 14.5073C17.2319 14.5069 17.2878 14.5067 17.3166 14.4786C17.3472 14.4488 17.3472 14.3876 17.3471 14.2612L17.3471 14.0887C17.3438 12.949 17.3438 11.8093 17.3471 10.6696C17.3473 10.6336 17.3449 10.5972 17.3426 10.5607C17.3358 10.4564 17.3291 10.3515 17.3804 10.2521C17.4822 10.2141 17.587 10.2194 17.6915 10.2246C17.7277 10.2264 17.7639 10.2282 17.8 10.2282H19.371C19.5075 10.2276 19.5269 10.2115 19.5524 10.0874C19.5634 10.0352 19.5692 9.98204 19.5696 9.92871V8.24588C19.568 8.18392 19.5596 8.12233 19.5447 8.06218C19.5208 7.95864 19.5014 7.94305 19.4037 7.93804H17.6712C17.6475 7.93804 17.6239 7.93847 17.6002 7.9389C17.5528 7.93977 17.5055 7.94064 17.4581 7.93804C17.3754 7.93804 17.3538 7.91187 17.3471 7.8267C17.3466 7.81781 17.3466 7.80888 17.3471 7.79998V6.14387C17.3477 6.03811 17.3727 6.01473 17.4698 6.00972H19.5486C19.6196 6.00972 19.6906 6.0086 19.7611 6.00471C19.8081 6.00471 19.8462 5.96666 19.8465 5.91953C19.8504 5.84884 19.8504 5.77758 19.8504 5.70633V3.97006C19.8504 3.94772 19.8505 3.92702 19.8507 3.90784C19.8513 3.78679 19.8516 3.726 19.8215 3.69582C19.7913 3.66557 19.7305 3.66588 19.6088 3.66648C19.5903 3.66657 19.5705 3.66667 19.5491 3.66667H15.1824C15.1492 3.66667 15.1192 3.66637 15.0923 3.6661C14.9709 3.66487 14.9096 3.66425 14.8789 3.69457C14.8477 3.72545 14.8481 3.78842 14.849 3.91551C14.8492 3.93918 14.8494 3.9651 14.8494 3.99344Z" fill="black"/>
<path d="M23.0812 10.9034V7.91132C23.0885 7.71554 23.0822 7.51948 23.0624 7.32458C23.0562 7.24476 23.0586 7.16451 23.0696 7.08521C23.0957 6.75677 23.1018 6.42722 23.0951 6.09823C23.0951 5.99302 23.0707 5.97075 22.968 5.97019H21.7699C21.7241 5.97019 21.6838 5.97077 21.6484 5.97128C21.5201 5.97313 21.4568 5.97404 21.4259 5.94283C21.3958 5.91242 21.3965 5.85151 21.398 5.73124C21.3984 5.69486 21.3989 5.65305 21.3987 5.60501C21.3968 5.2428 21.3975 4.88059 21.3981 4.51838L21.3981 4.51458C21.3984 4.33474 21.3987 4.15491 21.3987 3.97507C21.3987 3.90381 21.3987 3.83256 21.4031 3.76186C21.4021 3.73952 21.41 3.7177 21.4251 3.70127C21.4403 3.68484 21.4613 3.67518 21.4836 3.67446C21.5452 3.67001 21.6073 3.6689 21.6695 3.6689H26.9968C27.2704 3.6689 27.2743 3.6689 27.2743 3.95336V5.68963C27.2743 5.75197 27.2743 5.81432 27.2693 5.87667C27.2702 5.89925 27.262 5.92124 27.2466 5.93768C27.2311 5.95413 27.2097 5.96364 27.1872 5.96407C27.125 5.96797 27.0629 5.96964 27.0013 5.97019H25.9064C25.8354 5.97019 25.7643 5.97019 25.6939 5.97409C25.6474 5.97153 25.6075 6.00665 25.604 6.05314C25.6003 6.07953 25.5981 6.10611 25.5973 6.13274C25.5941 6.28329 25.5891 6.43389 25.5842 6.58449C25.5731 6.92335 25.562 7.26235 25.5701 7.60069C25.6004 8.90064 25.5949 10.2006 25.5895 11.5007L25.5895 11.5017C25.5868 12.1332 25.5842 12.7647 25.5856 13.3962C25.5856 13.5875 25.5803 13.7796 25.5749 13.9718C25.5713 14.1 25.5677 14.2285 25.5657 14.3565C25.5629 14.5035 25.5474 14.5191 25.3909 14.5196H24.1145C23.8215 14.5196 23.5285 14.5196 23.2355 14.5146C23.1145 14.5146 23.0962 14.494 23.089 14.3771C23.0835 14.2797 23.0835 14.1812 23.0835 14.0832C23.082 13.0233 23.0812 11.9634 23.0812 10.9034Z" fill="black"/>
<path d="M4.40782 4.01626L4.40948 14.3799C4.41448 14.4979 4.42946 14.5107 4.55709 14.5157H8.49766C8.5184 14.5157 8.53913 14.5161 8.55985 14.5165C8.60122 14.5172 8.64252 14.5179 8.68356 14.5157C8.79177 14.5113 8.81064 14.494 8.81563 14.3932V12.3096C8.81536 12.1415 8.82261 12.0635 8.78717 12.0276C8.75125 11.9911 8.67144 11.9979 8.49544 11.9979H7.05761C6.89113 11.9973 6.8706 11.9767 6.86672 11.8181C6.86006 11.6043 6.86006 11.3905 6.86006 11.1768V4.04298C6.86006 4.01626 6.86043 3.98954 6.8608 3.96282C6.86154 3.90938 6.86228 3.85594 6.86006 3.8025C6.85506 3.68838 6.83619 3.67168 6.713 3.66667H4.76908C4.56498 3.66751 4.4749 3.65557 4.43572 3.69465C4.39736 3.73293 4.40782 3.82015 4.40782 4.01626Z" fill="black"/>
<path fill-rule="evenodd" clip-rule="evenodd" d="M0.354046 18.2671C0.312543 18.2671 0.275859 18.2676 0.243444 18.268C0.118189 18.2696 0.0566521 18.2704 0.0270294 18.2401C-0.00156768 18.2108 -0.000434266 18.1525 0.00179332 18.0379C0.00250553 18.0012 0.00332959 17.9588 0.00332959 17.9098C0.00110986 12.1307 0 6.35096 0 0.570441V0.223076C0 0.0115394 0.00499438 0.00485934 0.226412 0.000405937H30.2149C30.2428 0.000405937 30.2686 0.000289356 30.2927 0.000181144C30.4548 -0.000549385 30.5323 -0.000898276 30.5687 0.037578C30.6019 0.0727505 30.6009 0.140367 30.5989 0.269793C30.5984 0.304996 30.5978 0.345154 30.5978 0.390079V17.8897C30.5978 17.9379 30.5985 17.98 30.5991 18.0168C30.6012 18.142 30.6023 18.2057 30.571 18.2375C30.5388 18.2703 30.4724 18.2694 30.3377 18.2676C30.3004 18.2671 30.2578 18.2665 30.2093 18.2666L0.354046 18.2671ZM28.3126 16.3427C28.4008 16.3427 28.4896 16.3399 28.5784 16.3344C28.6157 16.3338 28.646 16.3039 28.6472 16.2665C28.6527 16.1779 28.6566 16.0889 28.6566 15.9998V2.08014C28.6511 1.97493 28.63 1.95155 28.5329 1.94599C28.4679 1.9428 28.4023 1.94296 28.3368 1.94313L28.2932 1.9432H13.2989C13.2533 1.9432 13.213 1.94264 13.1775 1.94214C13.0454 1.94029 12.9794 1.93937 12.9469 1.9719C12.9145 2.00438 12.9154 2.07018 12.9172 2.20167C12.9177 2.23853 12.9183 2.28054 12.9182 2.32842V11.6522C12.9182 11.7412 12.9166 11.8303 12.9132 11.9194C12.914 11.9419 12.9056 11.9637 12.89 11.9798C12.8744 11.996 12.853 12.0051 12.8306 12.0051C12.7714 12.0093 12.7122 12.0096 12.653 12.0099L12.6175 12.0101H10.8334C10.7896 12.0101 10.751 12.0107 10.7171 12.0112C10.5924 12.0129 10.5302 12.0138 10.4997 11.9832C10.4693 11.9528 10.4701 11.8912 10.4718 11.7686C10.4722 11.7369 10.4727 11.701 10.4727 11.6605V2.28333C10.4727 2.25199 10.4729 2.22353 10.4731 2.19767C10.4743 2.07255 10.4749 2.00838 10.4431 1.97582C10.4099 1.94171 10.3413 1.94211 10.2008 1.94292C10.1773 1.94306 10.1518 1.9432 10.1242 1.9432H2.74358C2.62616 1.9432 2.50873 1.9399 2.39153 1.9366C2.34921 1.93541 2.30692 1.93422 2.26467 1.93318C2.17977 1.93318 2.15369 1.95044 2.15369 2.04006C2.14869 2.22711 2.14592 2.41359 2.14592 2.60064V15.6914C2.14592 15.7894 2.14592 15.8874 2.14925 15.9853C2.15078 16.0375 2.15104 16.0821 2.15125 16.1203C2.15187 16.2282 2.15219 16.2843 2.18041 16.3133C2.21101 16.3447 2.27445 16.3441 2.40667 16.3428C2.43638 16.3425 2.46956 16.3422 2.50662 16.3422L28.3126 16.3427Z" fill="black"/>
</svg>
