<svg width="37" height="37" viewBox="0 0 37 37" fill="none" xmlns="http://www.w3.org/2000/svg">
<path opacity="0.1" fill-rule="evenodd" clip-rule="evenodd" d="M18.5 36C28.165 36 36 28.165 36 18.5C36 8.83502 28.165 1 18.5 1C8.83502 1 1 8.83502 1 18.5C1 28.165 8.83502 36 18.5 36Z" stroke="#0A142F" stroke-width="1.5"/>
<path d="M14.4835 14.9671C15.3029 14.9671 15.9671 14.3029 15.9671 13.4835C15.9671 12.6642 15.3029 12 14.4835 12C13.6642 12 13 12.6642 13 13.4835C13 14.3029 13.6642 14.9671 14.4835 14.9671Z" fill="#0A142F"/>
<path d="M15.7198 15.9581H13.2473C13.1108 15.9581 13 16.0689 13 16.2054V23.6231C13 23.7596 13.1108 23.8704 13.2473 23.8704H15.7198C15.8563 23.8704 15.9671 23.7596 15.9671 23.6231V16.2054C15.9671 16.0689 15.8563 15.9581 15.7198 15.9581Z" fill="#0A142F"/>
<path d="M23.088 15.5468C22.0313 15.1848 20.7094 15.5028 19.9167 16.0729C19.8895 15.9666 19.7926 15.8875 19.6774 15.8875H17.2048C17.0683 15.8875 16.9575 15.9983 16.9575 16.1347V23.5525C16.9575 23.689 17.0683 23.7998 17.2048 23.7998H19.6774C19.8138 23.7998 19.9246 23.689 19.9246 23.5525V18.2216C20.3242 17.8774 20.839 17.7676 21.2603 17.9467C21.6688 18.1192 21.9027 18.5406 21.9027 19.1018V23.5525C21.9027 23.689 22.0135 23.7998 22.1499 23.7998H24.6225C24.759 23.7998 24.8698 23.689 24.8698 23.5525V18.6039C24.8416 16.5719 23.8857 15.8197 23.088 15.5468Z" fill="#0A142F"/>
</svg>
